<?xml version="1.0" encoding="UTF-8"?>
<!DOCTYPE svg PUBLIC "-//W3C//DTD SVG 1.1//EN" "http://www.w3.org/Graphics/SVG/1.1/DTD/svg11.dtd">
<svg version="1.1" xmlns="http://www.w3.org/2000/svg" xmlns:xlink="http://www.w3.org/1999/xlink" x="0" y="0" width="297.905" height="234.333" viewBox="0, 0, 297.905, 234.333">
  <g id="Layer_1">
    <path d="M0,-0 L297.905,-0 L297.905,234.333 L0,234.333 L0,-0 z" fill="#FFFFFF"/>
    <g>
      <path d="M126.55,135.614 C126.55,141.548 121.74,146.358 115.807,146.358 C109.874,146.358 105.064,141.548 105.064,135.614 C105.064,129.681 109.874,124.871 115.807,124.871 C121.74,124.871 126.55,129.681 126.55,135.614 z" fill="#FFFFFF"/>
      <path d="M126.55,135.614 C126.55,141.548 121.74,146.358 115.807,146.358 C109.874,146.358 105.064,141.548 105.064,135.614 C105.064,129.681 109.874,124.871 115.807,124.871 C121.74,124.871 126.55,129.681 126.55,135.614 z" fill-opacity="0" stroke="#000000" stroke-width="2"/>
    </g>
    <g>
      <path d="M193.841,135.614 C193.841,141.548 189.031,146.358 183.098,146.358 C177.165,146.358 172.355,141.548 172.355,135.614 C172.355,129.681 177.165,124.871 183.098,124.871 C189.031,124.871 193.841,129.681 193.841,135.614 z" fill="#FFFFFF"/>
      <path d="M193.841,135.614 C193.841,141.548 189.031,146.358 183.098,146.358 C177.165,146.358 172.355,141.548 172.355,135.614 C172.355,129.681 177.165,124.871 183.098,124.871 C189.031,124.871 193.841,129.681 193.841,135.614 z" fill-opacity="0" stroke="#000000" stroke-width="2"/>
    </g>
    <path d="M105.063,124.871 L172.354,88.976" fill-opacity="0" stroke="#000000" stroke-width="6"/>
    <path d="M105.064,135.614 L48.531,135.614" fill-opacity="0" stroke="#000000" stroke-width="3"/>
    <path d="M250.374,135.614 L193.841,135.614" fill-opacity="0" stroke="#000000" stroke-width="3"/>
  </g>
</svg>
